<?xml version="1.0" encoding="UTF-8" standalone="no"?>
<svg width="1000px" height="227px" viewBox="0 0 1000 227" version="1.1" xmlns="http://www.w3.org/2000/svg" xmlns:xlink="http://www.w3.org/1999/xlink" xmlns:sketch="http://www.bohemiancoding.com/sketch/ns">
    <defs></defs>
    <g id="Page-1" stroke="none" stroke-width="1" fill="none" fill-rule="evenodd" sketch:type="MSPage">
        <path d="M420.75,211 L370,211 L329.25,151.25 L328.5,151.25 L328.5,211 L287.25,211 L287.25,22 L328.5,22 L328.5,137 L329.25,137 L369,86.5 L418.75,86.5 L370.75,142.75 L420.75,211 Z M507.75,156.75 L502.5,156.75 C497.999977,156.75 493.458356,156.958331 488.875,157.375 C484.291644,157.791669 480.208351,158.583327 476.625,159.75 C473.041649,160.916673 470.083345,162.624989 467.75,164.875 C465.416655,167.125011 464.25,170.083315 464.25,173.75 C464.25,176.083345 464.791661,178.083325 465.875,179.75 C466.958339,181.416675 468.333325,182.749995 470,183.75 C471.666675,184.750005 473.583323,185.458331 475.75,185.875 C477.916677,186.291669 479.99999,186.5 482,186.5 C490.333375,186.5 496.708311,184.208356 501.125,179.625 C505.541689,175.041644 507.75,168.833372 507.75,161 L507.75,156.75 Z M432.5,103.5 C439.83337,96.499965 448.374951,91.2500175 458.125,87.75 C467.875049,84.2499825 477.833282,82.5 488,82.5 C498.500052,82.5 507.374964,83.7916537 514.625,86.375 C521.875036,88.9583462 527.749977,92.9583062 532.25,98.375 C536.750023,103.791694 540.041656,110.624959 542.125,118.875 C544.208344,127.125041 545.25,136.91661 545.25,148.25 L545.25,211 L507.75,211 L507.75,197.75 L507,197.75 C503.833318,202.916693 499.041699,206.916652 492.625,209.75 C486.208301,212.583348 479.250037,214 471.75,214 C466.749975,214 461.58336,213.33334 456.25,212 C450.91664,210.66666 446.041689,208.500015 441.625,205.5 C437.208311,202.499985 433.583348,198.500025 430.75,193.5 C427.916652,188.499975 426.5,182.33337 426.5,175 C426.5,165.999955 428.958309,158.750027 433.875,153.25 C438.791691,147.749973 445.124961,143.500015 452.875,140.5 C460.625039,137.499985 469.249953,135.500005 478.75,134.5 C488.250047,133.499995 497.499955,133 506.5,133 L506.5,131 C506.5,124.833303 504.333355,120.291681 500,117.375 C495.666645,114.458319 490.333365,113 484,113 C478.166637,113 472.541694,114.249987 467.125,116.75 C461.708306,119.250013 457.083352,122.249982 453.25,125.75 L432.5,103.5 Z M576.25,211 L576.25,22 L617.75,22 L617.75,211 L576.25,211 Z M650.75,211 L650.75,22 L692.25,22 L692.25,211 L650.75,211 Z M798.25,156.75 L793,156.75 C788.499977,156.75 783.958356,156.958331 779.375,157.375 C774.791644,157.791669 770.708351,158.583327 767.125,159.75 C763.541649,160.916673 760.583345,162.624989 758.25,164.875 C755.916655,167.125011 754.75,170.083315 754.75,173.75 C754.75,176.083345 755.291661,178.083325 756.375,179.75 C757.458339,181.416675 758.833325,182.749995 760.5,183.75 C762.166675,184.750005 764.083323,185.458331 766.25,185.875 C768.416677,186.291669 770.49999,186.5 772.5,186.5 C780.833375,186.5 787.208311,184.208356 791.625,179.625 C796.041689,175.041644 798.25,168.833372 798.25,161 L798.25,156.75 Z M723,103.5 C730.33337,96.499965 738.874951,91.2500175 748.625,87.75 C758.375049,84.2499825 768.333282,82.5 778.5,82.5 C789.000053,82.5 797.874964,83.7916537 805.125,86.375 C812.375036,88.9583462 818.249977,92.9583062 822.75,98.375 C827.250022,103.791694 830.541656,110.624959 832.625,118.875 C834.708344,127.125041 835.75,136.91661 835.75,148.25 L835.75,211 L798.25,211 L798.25,197.75 L797.5,197.75 C794.333318,202.916693 789.541699,206.916652 783.125,209.75 C776.708301,212.583348 769.750037,214 762.25,214 C757.249975,214 752.08336,213.33334 746.75,212 C741.41664,210.66666 736.541689,208.500015 732.125,205.5 C727.708311,202.499985 724.083347,198.500025 721.25,193.5 C718.416652,188.499975 717,182.33337 717,175 C717,165.999955 719.458309,158.750027 724.375,153.25 C729.291691,147.749973 735.624961,143.500015 743.375,140.5 C751.125039,137.499985 759.749952,135.500005 769.25,134.5 C778.750047,133.499995 787.999955,133 797,133 L797,131 C797,124.833303 794.833355,120.291681 790.5,117.375 C786.166645,114.458319 780.833365,113 774.5,113 C768.666637,113 763.041694,114.249987 757.625,116.75 C752.208306,119.250013 747.583353,122.249982 743.75,125.75 L723,103.5 Z M951.25,211 L924.5,172.75 L897,211 L849.5,211 L899.25,145.75 L854.25,86.5 L902,86.5 L925.25,119.75 L948.75,86.5 L995,86.5 L950.25,145.75 L999.5,211 L951.25,211 Z" id="kallax" fill="#2C6FBF" sketch:type="MSShapeGroup"></path>
        <rect id="Rectangle-1-Copy" fill="#316FB8" sketch:type="MSShapeGroup" x="30" y="0" width="200" height="200"></rect>
        <path d="M0.268554688,26.9609375 L30.4287109,0.0673828125 L31.5361328,28.0341797 L15.4140625,29.7607422 L0.268554688,26.9609375 Z" id="Path-1" fill="#316FB8" sketch:type="MSShapeGroup"></path>
        <path d="M198.699997,223.893555 L228.860153,197 L229.967575,224.966797 L213.845505,226.693359 L198.699997,223.893555 Z" id="Path-1-Copy" fill="#316FB8" sketch:type="MSShapeGroup" transform="translate(214.333786, 211.846680) scale(-1, -1) translate(-214.333786, -211.846680) "></path>
        <rect id="Rectangle-1" fill="#3E89E0" sketch:type="MSShapeGroup" x="0" y="27" width="200" height="200"></rect>
        <rect id="Rectangle-3" fill="#2960A1" sketch:type="MSShapeGroup" x="16" y="43" width="75" height="75"></rect>
        <rect id="Rectangle-3-Copy" fill="#2960A1" sketch:type="MSShapeGroup" x="108" y="43" width="75" height="75"></rect>
        <rect id="Rectangle-3-Copy-3" fill="#2960A1" sketch:type="MSShapeGroup" x="16" y="134" width="75" height="75"></rect>
        <rect id="Rectangle-3-Copy-2" fill="#2960A1" sketch:type="MSShapeGroup" x="108" y="134" width="75" height="75"></rect>
    </g>
</svg>
